<svg t="1694585916813" class="icon" viewBox="0 0 1024 1024" version="1.1" xmlns="http://www.w3.org/2000/svg" p-id="10710" xmlns:xlink="http://www.w3.org/1999/xlink" width="200" height="200"><path d="M356.608 1003.306667a281.6 281.6 0 0 1-110.08-22.314667 290.133333 290.133333 0 0 1-96.810667-66.858667A303.829333 303.829333 0 0 1 85.333333 813.397333a316.885333 316.885333 0 0 1 0-229.12 303.786667 303.786667 0 0 1 64.256-100.736l385.493334-399.274666A206.805333 206.805333 0 0 1 604.032 36.650667a201.258667 201.258667 0 0 1 156.757333 0 206.762667 206.762667 0 0 1 68.949334 47.616 216.490667 216.490667 0 0 1 45.781333 71.722666 225.706667 225.706667 0 0 1 0 163.114667 216.490667 216.490667 0 0 1-45.781333 71.722667l-384.64 400.298666a124.501333 124.501333 0 0 1-41.514667 28.672 121.130667 121.130667 0 0 1-94.336 0 124.544 124.544 0 0 1-41.514667-28.672 130.176 130.176 0 0 1-27.52-43.178666 135.765333 135.765333 0 0 1 0-98.133334 130.304 130.304 0 0 1 27.52-43.221333l354.645334-369.066667a40.661333 40.661333 0 0 1 59.093333 0 44.757333 44.757333 0 0 1 0 61.525334l-354.645333 369.066666a44.757333 44.757333 0 0 0 0 61.525334 40.618667 40.618667 0 0 0 59.093333 0l384.682667-400.298667a133.546667 133.546667 0 0 0 0-183.466667 121.301333 121.301333 0 0 0-176.384 0l-385.536 399.274667a217.002667 217.002667 0 0 0-45.909334 71.893333 226.645333 226.645333 0 0 0 0 163.712A216.874667 216.874667 0 0 0 209.066667 852.608a207.274667 207.274667 0 0 0 69.12 47.786667 202.197333 202.197333 0 0 0 157.312 0 207.274667 207.274667 0 0 0 69.12-47.786667l384-399.829333a40.661333 40.661333 0 0 1 59.093333 0 44.757333 44.757333 0 0 1 0 61.525333l-384 399.829333a290.346667 290.346667 0 0 1-96.810667 66.858667 281.6 281.6 0 0 1-110.293333 22.314667z" p-id="10711"></path></svg>
